<svg height="87" viewBox="0 0 329 87" width="329" xmlns="http://www.w3.org/2000/svg" xmlns:xlink="http://www.w3.org/1999/xlink"><mask id="a" fill="#fff"><path d="m0 .04399566v59.47188064h88.695v-59.47188064z" fill="#fff" fill-rule="evenodd"/></mask><g fill="none" fill-rule="evenodd"><g fill="#4aa241" transform="translate(0 17)"><path d="m77.409 51.278c.421.248.855.495 1.301.741 5.038 2.779 9.985.803 9.985.803l-4.557 6.684s-2.244.308-6.628-2.516c-1.542-.992-2.907-2.618-4.028-4.31 0 0 1.025-.277 2.016-.631s1.911-.771 1.911-.771" mask="url(#a)"/><path d="m49.812 12.75c-8.702-12.059-25.302-15.123-48.594-10.927-1.913.344-1.245 1.53-.221 1.918 17.649 6.68 13.236 40.237 47.678 40.829.578.009.957-.099 1.201-.32 0 0-2.743-3.493-4.081-7.724-1.453-4.594-1.23-8.357-1.23-8.357-5.718-8.242-14.749-16-22.515-19.495-1.403-.631-1.714.778-.896 1.328 8.728 5.874 20.631 19.994 23.319 32.517-20.346-2.184-18.728-26.707-34.982-39.619 12.717-.223 27.558 5.047 36.538 17.153 0 0 .896-2.35 1.61-3.621.961-1.711 2.173-3.682 2.173-3.682" mask="url(#a)"/></g><path d="m61.042 31.776c.925-2.515 4.33-9.909 4.33-9.909s-20.314 21.978-6.201 37.07c0 0 2.256 2.054 4.343.245 2.3-1.995.247-4.145.247-4.145s-7.215-6.924-4.583-16.842c0 0 .887-3.764 1.864-6.419zm6.996-31.409.599 1.62c8.115 21.957 9.17 21.503 15.297 32.245-.45-.662 3.67 5.099 3.67 12.024 0 11.434-8.852 20.704-19.773 20.704l.468-.009c-10.92 0-19.773-9.271-19.773-20.706 0-6.924 3.187-10.981 3.529-11.776l.33-.579c6.128-10.74 6.994-9.954 15.11-31.913z" fill="#006096"/><path d="m98.674 62.7h10.392v-49.689h-10.392z" fill="#006095"/><path d="m122.607 27.945v4.474h.138c1.79-3.992 5.093-5.163 9.015-5.163v8.672c-8.533-.551-8.67 4.403-8.67 7.845v18.927h-9.705v-34.755z" fill="#006095"/><path d="m143.334 27.945v4.474h.138c1.79-3.992 5.094-5.163 9.017-5.163v8.672c-8.535-.551-8.673 4.403-8.673 7.845v18.927h-9.704v-34.755z" fill="#006095"/><path d="m154.916 62.701h9.705v-34.756h-9.705zm0-42.051h9.705v-7.639h-9.705z" fill="#006095"/><path d="m181.401 56.23c3.512 0 3.994-3.649 3.994-11.012 0-7.638-.347-11.976-3.923-11.976-3.648 0-4.266 2.549-4.266 13.146 0 3.235-.484 9.842 4.195 9.842zm13.696-28.285v36.201c0 2.41.14 11.906-13.21 11.906-7.229 0-13.423-1.857-13.628-10.325h9.496c0 1.446.207 2.684.826 3.512.619.894 1.721 1.375 3.235 1.375 2.409 0 3.579-2.271 3.579-5.781v-6.676h-.137c-1.445 2.684-4.198 4.061-7.366 4.061-10.666 0-10.186-9.772-10.186-17.617 0-7.641.14-17.345 10.256-17.345 3.439 0 6.4 1.515 7.777 4.749h.14v-4.06z" fill="#006096"/><g fill="#006095"><path d="m207.472 51.894c0 2.48.411 5.506 3.578 5.506 5.711 0 4.818-7.707 4.818-11.493-4.818.208-8.396-.203-8.396 5.987zm17.892 4.336c0 2.135.276 4.339.483 6.47h-9.016l-.414-4.611h-.137c-2.063 3.579-4.885 5.299-9.085 5.299-6.745 0-9.223-5.023-9.223-11.08 0-11.492 8.879-11.977 17.896-11.838v-2.684c0-2.96-.416-5.092-3.923-5.092-3.371 0-3.649 2.546-3.649 5.3h-9.496c0-4.2 1.306-6.883 3.579-8.466 2.202-1.652 5.367-2.272 9.083-2.272 12.318 0 13.902 5.301 13.902 11.631z"/><path d="m226.552 27.945h3.924v-5.504l9.705-4.337v9.841h5.025v5.986h-5.025v18.584c0 2.613-.071 4.334 3.098 4.334.617 0 1.238 0 1.718-.135v5.986c-1.306.137-2.681.344-5.022.344-8.396 0-9.499-5.574-9.499-7.708v-21.405h-3.924z"/><path d="m248.246 62.701h9.706v-34.756h-9.706zm0-42.051h9.706v-7.639h-9.706z"/><path d="m279.686 44.324c0-7.226-.343-10.873-4.472-10.873-4.131 0-4.473 3.647-4.473 10.873 0 10.599.893 12.87 4.473 12.87 3.578 0 4.472-2.271 4.472-12.87zm-18.652.551c0-9.498 1.379-17.619 14.18-17.619 12.797 0 14.178 8.121 14.178 17.619 0 10.874-1.653 18.513-14.178 18.513-12.526 0-14.18-7.639-14.18-18.513z"/><path d="m302.538 31.454h.137c.963-1.583 2.136-2.615 3.443-3.235 1.375-.686 2.957-.963 4.746-.963 4.615 0 8.674 2.754 8.674 7.57v27.874h-9.705v-23.951c0-3.095-.549-5.507-3.645-5.507-3.101 0-3.65 2.412-3.65 5.507v23.951h-9.705v-34.755h9.705z"/><path d="m203.559 72.919h-.047l-1.587 7.167h3.308zm-6.688 13.393 4.596-16.586h4.57l4.504 16.586h-3.653l-.92-3.676h-4.733l-.939 3.676z"/><path d="m215.871 86.589c-4.298 0-5.1-2.531-4.917-5.4h3.469c0 1.585.07 2.918 1.976 2.918 1.172 0 1.747-.758 1.747-1.883 0-2.988-6.987-3.172-6.987-8.112 0-2.595 1.242-4.664 5.47-4.664 3.376 0 5.055 1.52 4.821 4.987h-3.375c0-1.242-.204-2.503-1.607-2.503-1.126 0-1.793.62-1.793 1.767 0 3.148 6.983 2.873 6.983 8.086 0 4.295-3.147 4.804-5.787 4.804"/><path d="m227.839 86.589c-4.297 0-5.1-2.531-4.916-5.4h3.469c0 1.585.068 2.918 1.976 2.918 1.17 0 1.746-.758 1.746-1.883 0-2.988-6.985-3.172-6.985-8.112 0-2.595 1.239-4.664 5.468-4.664 3.378 0 5.054 1.52 4.824 4.987h-3.379c0-1.242-.203-2.503-1.604-2.503-1.128 0-1.792.62-1.792 1.767 0 3.148 6.984 2.873 6.984 8.086 0 4.295-3.151 4.804-5.791 4.804"/><path d="m243.07 78.019c0-4.248-.25-6.087-2.206-6.087-1.951 0-2.202 1.839-2.202 6.087 0 4.25.251 6.088 2.202 6.088 1.956 0 2.206-1.838 2.206-6.088zm-7.925 0c0-4.389 0-8.571 5.719-8.571 5.721 0 5.721 4.182 5.721 8.571 0 4.341 0 8.57-5.721 8.57-5.719 0-5.719-4.229-5.719-8.57z"/><path d="m247.879 78.019c0-4.389 0-8.571 5.717-8.571 3.538 0 4.963 1.955 4.825 5.514h-3.399c0-2.205-.389-3.03-1.426-3.03-1.951 0-2.204 1.839-2.204 6.087 0 4.25.253 6.088 2.204 6.088 1.608 0 1.542-2.069 1.585-3.377h3.423c0 4.433-1.767 5.859-5.008 5.859-5.717 0-5.717-4.229-5.717-8.57"/><path d="m260.258 86.312h3.467v-16.586h-3.467z"/><path d="m271.513 72.919h-.045l-1.588 7.167h3.308zm-6.686 13.393 4.594-16.586h4.572l4.503 16.586h-3.654l-.917-3.676h-4.734l-.941 3.676z"/><path d="m287.829 69.726v2.756h-3.861v13.83h-3.468v-13.83h-3.86v-2.756z"/><path d="m289.133 86.312h3.471v-16.586h-3.471z"/><path d="m302.479 78.019c0-4.248-.25-6.087-2.205-6.087-1.954 0-2.207 1.839-2.207 6.087 0 4.25.253 6.088 2.207 6.088 1.955 0 2.205-1.838 2.205-6.088zm-7.927 0c0-4.389 0-8.571 5.722-8.571s5.722 4.182 5.722 8.571c0 4.341 0 8.57-5.722 8.57s-5.722-4.229-5.722-8.57z"/><path d="m307.471 86.312v-16.586h4.684l4.412 11.486h.047v-11.486h3.24v16.586h-4.574l-4.525-12.133h-.045v12.133z"/><path d="m324.904 71.995h.353c.304 0 .623 0 .623-.416s-.352-.416-.623-.416h-.353zm-.943-1.44h1.567c.56 0 1.264 0 1.264.88 0 .352-.16.72-.816.8v.016c.639.016.671.336.736.672.111.751.111.783.176.991h-1.008c-.048-.208-.08-.432-.111-.784-.049-.384-.065-.528-.481-.528h-.384v1.312h-.943zm-1.104 1.68c0 1.375 1.128 2.494 2.496 2.494 1.399 0 2.518-1.135 2.518-2.494 0-1.399-1.136-2.519-2.518-2.519-1.352 0-2.496 1.095-2.496 2.519zm5.534 0c0 1.663-1.36 3.022-3.038 3.022-1.68 0-3.023-1.359-3.023-3.022 0-1.711 1.375-3.038 3.023-3.038 1.646 0 3.038 1.327 3.038 3.038z"/></g></g></svg>